<?xml version="1.0" encoding="UTF-8" standalone="no"?>
<svg
   id="Layer_1"
   data-name="Layer 1"
   width="750.00275"
   height="630.27258"
   viewBox="0 0 750.00275 630.27256"
   version="1.1"
   sodipodi:docname="controller overlay.svg"
   inkscape:version="1.4.3 (0d15f75042, 2025-12-25)"
   xml:space="preserve"
   inkscape:export-batch-name="controller-overlay"
   inkscape:export-batch-path="../HOCKEYCLUBOVR"
   xmlns:inkscape="http://www.inkscape.org/namespaces/inkscape"
   xmlns:sodipodi="http://sodipodi.sourceforge.net/DTD/sodipodi-0.dtd"
   xmlns:xlink="http://www.w3.org/1999/xlink"
   xmlns="http://www.w3.org/2000/svg"
   xmlns:svg="http://www.w3.org/2000/svg"><sodipodi:namedview
     id="namedview57"
     pagecolor="#ffffff"
     bordercolor="#000000"
     borderopacity="0.25"
     inkscape:showpageshadow="2"
     inkscape:pageopacity="0.0"
     inkscape:pagecheckerboard="0"
     inkscape:deskcolor="#d1d1d1"
     showguides="true"
     inkscape:zoom="0.45760168"
     inkscape:cx="107.08003"
     inkscape:cy="177.00984"
     inkscape:window-width="1920"
     inkscape:window-height="1003"
     inkscape:window-x="0"
     inkscape:window-y="0"
     inkscape:window-maximized="1"
     inkscape:current-layer="layer2"
     showgrid="false" /><defs
     id="defs1"><linearGradient
       id="linearGradient84"
       inkscape:collect="always"><stop
         style="stop-color:#ffffff;stop-opacity:1;"
         offset="0.05263158"
         id="stop85" /><stop
         style="stop-color:#6d83b3;stop-opacity:1;"
         offset="0.58971834"
         id="stop84" /><stop
         style="stop-color:#000000;stop-opacity:0.5259434;"
         offset="1"
         id="stop86" /></linearGradient><linearGradient
       id="linearGradient57"
       inkscape:collect="always"><stop
         style="stop-color:#c0c6d5;stop-opacity:1;"
         offset="0.00593472"
         id="stop57" /><stop
         style="stop-color:#394a70;stop-opacity:1;"
         offset="1"
         id="stop58" /></linearGradient><style
       id="style1">
      .cls-1 {
        fill: none;
      }

      .cls-2 {
        fill: #050505;
      }

      .cls-3 {
        fill: #0d0808;
      }

      .cls-4 {
        fill: #141414;
      }

      .cls-5 {
        fill: #120b0b;
      }

      .cls-6 {
        fill: #242424;
      }

      .cls-7 {
        fill: #292929;
      }

      .cls-8 {
        fill: #191919;
      }

      .cls-9 {
        fill: #1c1c1c;
      }

      .cls-10 {
        fill: #171717;
      }

      .cls-11 {
        fill: #0f0f0f;
      }

      .cls-12 {
        fill: #1a1a1a;
      }

      .cls-13 {
        fill: #1a1615;
      }

      .cls-14, .cls-18 {
        fill: #0a0a0a;
      }

      .cls-14 {
        stroke: #000;
      }

      .cls-14, .cls-16, .cls-17 {
        stroke-miterlimit: 10;
      }

      .cls-15 {
        fill: #6d6b6c;
      }

      .cls-16 {
        fill: #080808;
        stroke: #140c0c;
      }

      .cls-16, .cls-17 {
        stroke-width: 2px;
      }

      .cls-17 {
        stroke: #120b0b;
      }

      .cls-19 {
        fill: #0d0d0d;
      }

      .cls-20 {
        isolation: isolate;
        opacity: 0.75;
      }

      .cls-21 {
        fill: #fff;
      }
    </style><linearGradient
       inkscape:collect="always"
       xlink:href="#linearGradient57"
       id="linearGradient58"
       x1="361.66824"
       y1="531.02954"
       x2="361.66824"
       y2="163.84"
       gradientUnits="userSpaceOnUse" /><radialGradient
       inkscape:collect="always"
       xlink:href="#linearGradient84"
       id="radialGradient85"
       cx="374.96252"
       cy="194.62309"
       fx="374.96252"
       fy="194.62309"
       r="25.98505"
       gradientTransform="matrix(2.3330371,0,0,2.1649713,-499.83895,-226.73032)"
       gradientUnits="userSpaceOnUse" /></defs><g
     inkscape:groupmode="layer"
     id="layer7"
     inkscape:label="BASE"
     transform="translate(0.00444674,-0.18739261)"><g
       id="g1"
       inkscape:label="Base"><g
         id="g4"><path
           class="cls-1"
           d="m 106.25,192.64 a 11.36,11.36 0 0 0 1.15,-0.65 c -0.4,0.22 -0.77,0.42 -1.15,0.65 z"
           id="path2" /><path
           class="cls-1"
           d="m 642.56,192 a 12.43,12.43 0 0 0 1.53,0.82 c -0.5,-0.31 -1.02,-0.58 -1.53,-0.82 z"
           id="path3" /><path
           class="cls-2"
           d="m 664.37,214 c -2.63483,-6.69875 -7.1018,-12.52071 -12.89,-16.8 -2.32363,-1.68633 -4.80129,-3.14949 -7.4,-4.37 -0.52448,-0.23894 -1.0323,-0.51289 -1.52,-0.82 C 609,174 545.1,153.81 525.08,157.66 c -26,5 -67.91654,76.76351 -91.375,77.0325 l -117.1875,1.34375 C 293.08904,236.3049 252.08,162.68 226.08,157.66 c -19.58,-3.78 -85.59,16.46 -118.75,34.33 -0.3704,0.23879 -0.75438,0.45582 -1.15,0.65 -3.0903,1.42137 -6.00903,3.18939 -8.7,5.27 -5.298449,4.22351 -9.383647,9.7751 -11.84,16.09 C 22.89,370 -1.74,469.11 0.09,529.13 3,623.55 76.67,630.46 76.67,630.46 c 37,-8.62 111.55,-129.14 168.54,-129.14 H 504.8 c 57,0 131.5,120.52 168.54,129.14 0,0 73.68,-6.91 76.56,-101.33 C 751.77,469.11 727.09,370 664.37,214 Z"
           id="path4"
           style="fill:url(#linearGradient58);fill-opacity:1"
           sodipodi:nodetypes="ccccssscccccccssccc" /></g><line
         class="cls-1"
         x1="107.46"
         y1="191.96001"
         x2="107.46"
         y2="193.52"
         id="line4" /><line
         class="cls-1"
         x1="642.54999"
         y1="191.47"
         x2="642.54999"
         y2="192.42"
         id="line5" /><g
         id="Dpad"><g
           id="g6"><path
             d="m 277.67,462.11 a 60.63,60.63 0 1 1 60.62,-60.62 60.69,60.69 0 0 1 -60.62,60.62 z"
             id="path5"
             style="fill:#1c243c;fill-opacity:1" /><path
             class="cls-3"
             d="M 277.67,341.86 A 59.63,59.63 0 1 1 218,401.49 59.69,59.69 0 0 1 277.64,341.86 m 0,-2 a 61.63,61.63 0 1 0 61.62,61.63 61.63,61.63 0 0 0 -61.62,-61.63 z"
             id="path6"
             style="fill:#ffffff;fill-opacity:0.032" /></g><g
           id="g20"><g
             id="g8"><path
               class="cls-4"
               d="m 277.67,452.7 c -7.13,0 -12.74,-1.32 -13.05,-3.08 a 0.76,0.76 0 0 1 0,-0.15 v -34.42 a 0.5,0.5 0 0 0 -0.5,-0.5 h -34.43 c -1.82,0 -3.25,-5.74 -3.25,-13.06 0,-7.32 1.43,-13.06 3.25,-13.06 h 34.42 a 0.5,0.5 0 0 0 0.5,-0.5 v -34.42 a 0.61,0.61 0 0 1 0,-0.14 l 0.06,-0.23 0.08,-0.13 c 0.5,-0.81 2.11,-1.52 4.54,-2 l 0.89,-0.18 a 9.49,9.49 0 0 1 1,-0.13 h 0.16 l 0.9,-0.11 1,-0.11 1,-0.08 2.36,-0.08 h 1.05 c 7.33,0 13.06,1.42 13.06,3.23 0,0.17 0,16 0,34.42 a 0.5,0.5 0 0 0 0.5,0.5 h 34.41 c 1.81,0 3.23,5.74 3.23,13.06 0,7.32 -1.42,13.06 -3.23,13.06 h -34.38 a 0.5,0.5 0 0 0 -0.5,0.5 v 34.42 a 0.77,0.77 0 0 1 0,0.15 c -0.32,1.72 -5.94,3.04 -13.07,3.04 z"
               id="path7"
               style="fill:#1c243c;fill-opacity:1" /></g><path
             class="cls-6"
             d="m 264.11,387.94 -3.6,-3.63 h -30.82 a 5.08,5.08 0 0 0 -2.78,0.85 l 2.78,2.78 z"
             id="path9"
             style="fill:#2b365c;fill-opacity:1" /><path
             class="cls-7"
             d="m 229.69,387.94 v 0 l -2.79,-2.78 c -1.36,0.93 -2.67,2.74 -3.52,6.14 a 50.92,50.92 0 0 0 0,20.38 c 0.85,3.4 2.16,5.21 3.52,6.14 l 2.79,-2.77 c -5,0 -5,-27.11 0,-27.11 z"
             id="path10"
             style="fill:#2b365c;fill-opacity:1" /><path
             class="cls-6"
             d="m 269.2,350.52 v 0 l 0.89,-0.18 h 0.07 c 0.30996,-0.0649 0.62404,-0.10838 0.94,-0.13 h 0.06 l 1,-0.13 v 0 l 1,-0.11 h 0.05 l 1,-0.08 h 0.14 1 0.16 1 1.17 c 6.77,0 13.54,1.12 13.54,3.62 l 2.76,-2.77 c -0.9,-1.37 -2.69,-2.6 -6.12,-3.42 -6.71719,-1.37339 -13.64281,-1.37339 -20.36,0 -2.94,0.72 -4.84,1.71 -5.85,2.91 l 2.57,2.57 c 0.65,-1.15 2.55,-1.8 4.98,-2.28 z"
             id="path11"
             style="fill:#2b365c;fill-opacity:1"
             sodipodi:nodetypes="sccccccccccccccsccccccs" /><path
             class="cls-8"
             d="m 325.65,387.94 2.76,-2.78 a 5,5 0 0 0 -2.76,-0.85 h -30.81 l -3.61,3.63 z"
             id="path12"
             style="fill:#2b365c;fill-opacity:1" /><path
             class="cls-9"
             d="m 291.23,353.51 v 0 c 0,0 0,15.44 0,34.42 l 3.6,-3.62 v 0 -30.8 a 5,5 0 0 0 -0.85,-2.77 l -2.76,2.77 z"
             id="path13"
             style="fill:#2b365c;fill-opacity:1" /><path
             class="cls-7"
             d="m 264.11,353.51 a 1.8,1.8 0 0 1 0,-0.22 v -0.14 0 c 0,-0.06 0,-0.12 0,-0.18 v 0 a 1,1 0 0 1 0.11,-0.17 l -2.57,-2.57 a 5,5 0 0 0 -1.26,3.34 v 30.8 l 3.6,3.62 z"
             id="path14"
             style="fill:#2b365c;fill-opacity:1" /><path
             class="cls-10"
             d="m 325.65,415.05 h -34.42 l 3.6,3.62 h 32.32 l 0.34,-0.35 a 5.46,5.46 0 0 0 0.92,-0.49 z"
             id="path15"
             style="fill:#2b365c;fill-opacity:1" /><path
             class="cls-11"
             d="m 291.23,449.47 2.76,2.77 a 5,5 0 0 0 0.84,-2.77 v -30.8 l -3.6,-3.62 z"
             id="path16"
             style="fill:#2b365c;fill-opacity:1" /><path
             class="cls-11"
             d="m 332,391.3 c -0.84,-3.4 -2.18,-5.21 -3.55,-6.14 l -2.76,2.77 c 5,0 5,27.12 0,27.12 l 2.77,2.78 c 1.36,-0.93 2.7,-2.75 3.54,-6.15 a 45,45 0 0 0 1,-10.19 45.54,45.54 0 0 0 -1,-10.19 z"
             id="path17"
             style="fill:#2b365c;fill-opacity:1" /><path
             class="cls-10"
             d="m 291.21,449.71 c -0.4,2.33 -7,3.49 -13.54,3.49 -6.54,0 -13.13,-1.16 -13.54,-3.49 -0.004,-0.0799 -0.004,-0.16005 0,-0.24 l -2.81,2.77 c 0.93,1.37 2.77,2.71 6.19,3.53 6.71583,1.38676 13.64417,1.38676 20.36,0 3.43,-0.82 5.24,-2.16 6.14,-3.53 l -2.75,-2.77 c -0.03,0.07 -0.03,0.15 -0.05,0.24 z"
             id="path18"
             style="fill:#2b365c;fill-opacity:1"
             sodipodi:nodetypes="cscccccccc" /><path
             class="cls-9"
             d="m 264.11,449.47 v 0 -34.42 l -3.6,3.62 v 31.65 l 0.09,0.23 a 5.09,5.09 0 0 0 0.72,1.69 z"
             id="path19"
             style="fill:#2b365c;fill-opacity:1" /><path
             class="cls-12"
             d="m 229.69,415.05 -2.79,2.77 a 5.11,5.11 0 0 0 2.79,0.85 h 30.82 l 3.6,-3.62 z"
             id="path20"
             style="fill:#2b365c;fill-opacity:1" /></g></g><g
         id="Menu_Key"
         data-name="Menu Key"><path
           class="cls-13"
           d="m 448.92,280.37 a 18.81,18.81 0 1 1 -18.79,-18.81 18.81,18.81 0 0 1 18.79,18.81 z"
           id="path21" /><g
           id="g25"><path
             class="cls-14"
             d="m 446.23,280.37 a 16.11,16.11 0 1 1 -16.1,-16.11 16.11,16.11 0 0 1 16.1,16.11 z"
             id="path22" /><g
             id="g24"><rect
               class="cls-15"
               x="422.92999"
               y="275.73999"
               width="14.36"
               height="1.55"
               id="rect22"
               style="fill:#ffffff" /><rect
               class="cls-15"
               x="422.92999"
               y="279.66"
               width="14.36"
               height="1.55"
               id="rect23"
               style="fill:#ffffff" /><rect
               class="cls-15"
               x="422.92999"
               y="283.47"
               width="14.36"
               height="1.53"
               id="rect24"
               style="fill:#ffffff" /></g></g></g><g
         id="Switcher_Key"
         data-name="Switcher Key"><path
           class="cls-13"
           d="m 340.94,280.37 a 18.81,18.81 0 1 1 -18.82,-18.81 18.81,18.81 0 0 1 18.82,18.81 z"
           id="path25" /><g
           id="g28"><path
             class="cls-14"
             d="m 338.22,280.37 a 16.1,16.1 0 1 1 -16.1,-16.11 16.09,16.09 0 0 1 16.1,16.11 z"
             id="path26" /><g
             id="g27"><polygon
               class="cls-15"
               points="322.04,277.8 323.84,277.8 323.84,274.74 314.95,274.74 314.95,282.13 319.6,282.13 319.6,280.27 316.57,280.27 316.57,276.48 322.04,276.48 "
               id="polygon26"
               style="fill:#ffffff" /><path
               class="cls-15"
               d="M 320.35,278.43 V 286 h 9 v -7.58 z m 7.16,5.78 H 322 v -3.95 h 5.47 z"
               id="path27"
               style="fill:#ffffff" /></g></g></g><g
         id="Left_Stick"
         data-name="Left Stick"
         style="fill:#1c243c;fill-opacity:1"><path
           class="cls-16"
           d="m 185.47,351.49 a 67.69,67.69 0 1 1 67.71,-67.69 67.77,67.77 0 0 1 -67.71,67.69 z"
           id="path28"
           style="fill:#1c243c;fill-opacity:1;stroke:none" /><path
           class="cls-17"
           d="m 241.57,279.86 a 56.1,56.1 0 1 1 -56.1,-56.1 56.09,56.09 0 0 1 56.1,56.1 z"
           id="path29"
           style="fill:#1c243c;fill-opacity:1;stroke:#b0d2fc;stroke-opacity:0.106" /></g><g
         id="Right_Stick"
         data-name="Right Stick"
         style="fill:#1c243c;fill-opacity:1"><path
           class="cls-16"
           d="M 473,465.46 A 67.7,67.7 0 1 1 540.71,397.78 67.77,67.77 0 0 1 473,465.46 Z"
           id="path30"
           style="fill:#1c243c;fill-opacity:1;stroke:none" /><path
           class="cls-17"
           d="M 529.15,393.82 A 56.1,56.1 0 1 1 473,337.73 a 56.09,56.09 0 0 1 56.15,56.09 z"
           id="path31"
           style="fill:#1c243c;fill-opacity:1;stroke:#c8c8c8;stroke-opacity:0.104" /></g><g
         id="Button_Base"
         data-name="Button Base"><g
           id="A"><path
             class="cls-18"
             d="m 566.76,355.27 a 25.2,25.2 0 1 1 25.24,-25.2 25.22,25.22 0 0 1 -25.24,25.2 z"
             id="path32" /><path
             class="cls-13"
             d="m 566.76,306.38 a 23.7,23.7 0 1 1 -23.69,23.69 23.69,23.69 0 0 1 23.69,-23.69 m 0,-3 a 26.7,26.7 0 1 0 26.71,26.69 26.72,26.72 0 0 0 -26.71,-26.69 z"
             id="path33" /></g><g
           id="Y"><path
             class="cls-18"
             d="M 566.76,254.2 A 25.2,25.2 0 1 1 592,229 25.23,25.23 0 0 1 566.76,254.2 Z"
             id="path34" /><path
             class="cls-13"
             d="m 566.76,205.3 a 23.7,23.7 0 1 1 -23.69,23.7 23.7,23.7 0 0 1 23.69,-23.69 m 0,-3 A 26.7,26.7 0 1 0 593.47,229 26.72,26.72 0 0 0 566.76,202.31 Z"
             id="path35" /></g><g
           id="B"><path
             class="cls-18"
             d="m 617.3,304.73 a 25.2,25.2 0 1 1 25.2,-25.2 25.23,25.23 0 0 1 -25.2,25.2 z"
             id="path36" /><path
             class="cls-13"
             d="m 617.3,255.84 a 23.7,23.7 0 1 1 -23.69,23.69 23.68,23.68 0 0 1 23.69,-23.69 m 0,-3 a 26.7,26.7 0 1 0 26.7,26.69 26.72,26.72 0 0 0 -26.7,-26.69 z"
             id="path37" /></g><g
           id="X"><path
             class="cls-18"
             d="m 516.22,304.73 a 25.2,25.2 0 1 1 25.21,-25.2 25.23,25.23 0 0 1 -25.21,25.2 z"
             id="path38" /><path
             class="cls-13"
             d="m 516.22,255.84 a 23.7,23.7 0 1 1 -23.69,23.69 23.69,23.69 0 0 1 23.69,-23.69 m 0,-3 a 26.7,26.7 0 1 0 26.71,26.69 26.72,26.72 0 0 0 -26.71,-26.69 z"
             id="path39" /></g></g><g
         id="g50"
         style="fill:#9494ad;fill-opacity:1"><g
           id="g41"
           style="fill:#9494ad;fill-opacity:1"><path
             class="cls-12"
             d="m 375.61,156.5 c 0,0 -88.91,-1.07 -100.54,-3 l -16.39,30.53 c 20.24,23.27 41.55,53.35368 56.4,53.35 l 121.04,-0.03 c 14.87,-0.004 36.93,-30.8 57.19,-54.12 L 476.2,153.5 c -11.64,1.93 -100.59,3 -100.59,3 z"
             id="path40"
             style="fill:#1c243c;fill-opacity:1"
             sodipodi:nodetypes="cccssccc" /><path
             class="cls-19"
             d="m 476.2,153.5 -2.64,-7.02 c -1.75443,0.47634 -4.57218,0.99835 -6.39,1.02 H 282.84 c -1.44084,-0.0158 -2.87579,-0.18678 -4.28,-0.51 l -3.49,6.54 c 11.63,1.9 100.54,3 100.54,3 0,0 88.96,-1.13 100.59,-3.03 z"
             id="path41"
             style="fill:#9494ad;fill-opacity:1"
             sodipodi:nodetypes="cccccccc" /></g><g
           id="RB"
           style="fill:#9494ad;fill-opacity:1"><path
             class="cls-12"
             d="m 642.55,192 c -9,-7.94 -5.64,-16.16 -11.47,-23.85 0.24,0.33 -0.21,-0.35 0,0 0,0 -96.82647,-42.39163 -121.09647,-34.81163 -15.57,4.87 -26.95669,15.27178 -32.54669,18.16178 L 493.31,183.23 C 504.48,170.55 516,159.42 525.06,157.66 545.1,153.81 609,174 642.56,192 Z"
             id="path42"
             style="fill:#1c243c;fill-opacity:1"
             sodipodi:nodetypes="ccccccccc" /><path
             class="cls-19"
             d="m 511,134.62 c 24.27,-7.59 120.77,34.46 120.8,34.47 -0.21,-0.33 -0.46,-0.65 -0.7,-1 -0.47936,-0.43143 -0.74987,-1.00675 -2.02483,-2.19725 -0.41074,-0.38353 -1.31413,-1.17252 -1.93738,-1.67196 -0.83551,-0.66954 -1.44209,-1.06459 -2.30594,-1.61367 C 606.24862,150.79522 553.67577,123.85118 508.39,129.89 c -7.61,1 -21.63,12.34 -33.82,16.28 l 3.59,6.67 C 483.74,150 495.41,139.48 511,134.62 Z"
             id="path43"
             style="fill:#9494ad;fill-opacity:1"
             sodipodi:nodetypes="cccssscccc" /></g><g
           id="LB"
           style="fill:#9494ad;fill-opacity:1"><path
             class="cls-19"
             d="m 241.62,129.89 c -42.24,-5.63 -95.93,21.46 -114.22,31.37 -1.45035,0.75995 -2.82197,1.62826 -4.09887,2.61007 -1.06159,0.81625 -2.09023,1.6917 -3.01169,2.6678 -0.11445,0.12124 -0.32222,0.35174 -0.53662,0.59643 -0.14647,0.16717 -0.29604,0.34096 -0.42107,0.49106 -0.23855,0.2864 -0.33723,0.43647 -0.47389,0.60634 -0.3475,0.43193 -0.22893,0.31325 -0.55786,0.7683 0,0 62.69504,-26.82247 100.10041,-33.5586 9.19221,-1.65537 17.08401,-2.32458 21.87959,-0.8214 15.54,4.87 27.31,15.33 32.89,18.22 l 3.43,-6.34 c -12.47,-3.55 -27.13,-15.58 -34.98,-16.61 z"
             id="path44"
             style="fill:#9494ad;fill-opacity:1"
             sodipodi:nodetypes="ccssssscscccc" /><g
             id="g47"
             style="fill:#9494ad;fill-opacity:1"><path
               class="cls-12"
               d="m 273.57,153.1 0.46,0.18 z"
               id="path45"
               style="fill:#9494ad;fill-opacity:1" /><path
               class="cls-12"
               d="M 273.17,152.84 C 267.59,149.95 255.83,139.49 240.28,134.62 216.07,127.06 119,168.71 118.3,169 c -5,7.44 -2.21,15.33 -10.84,23 h -0.06 c 33.16,-17.87 99.17,-38.11 118.75,-34.33 9.13,1.76 20.68,12.88 31.85,25.56 l 15.57,-30.13 z"
               id="path46"
               style="fill:#1c243c;fill-opacity:1"
               sodipodi:nodetypes="ccccccccc" /><path
               d="m 273.1,152.85 c 0.17,0.08 0.31,0.17 0.47,0.25 -0.16,-0.1 -0.3,-0.17 -0.47,-0.25 z"
               id="path47"
               style="fill:#9494ad;fill-opacity:1" /></g></g><g
           id="g72"
           style="fill:#cfdbff;fill-opacity:1"><path
             d="m 258,183.23 c 0.23,0.29 0.47,0.56 0.72,0.83 l 16.39,-30.53 3.49,-6.54 c -0.35,-0.06 -0.69,-0.13 -1,-0.22 -0.31,-0.09 -0.67,-0.19 -1,-0.27 l -3.43,6.34 -15.85,29.58 c 0.24,0.27 0.47,0.54 0.73,0.81 v 0"
             id="path48"
             style="fill:#cfdbff;fill-opacity:1" /><path
             d="m 478.16,152.84 -3.6,-6.67 c -0.33,0.09 -0.66,0.21 -1,0.31 l -1,0.27 3.64,6.78 16.38,30.54 c 0.24,-0.28 0.5,-0.54 0.73,-0.84 0.23,-0.3 0.49,-0.54 0.72,-0.81 z"
             id="path49"
             style="fill:#cfdbff;fill-opacity:1"
             sodipodi:nodetypes="ccccccscc" /></g><path
           class="cls-12"
           d="M 357,169.29 Z"
           id="path50"
           style="fill:#9494ad;fill-opacity:1" /></g><g
         id="g52"><g
           id="g51"><path
             class="cls-21"
             d="M 407.58,196.41 A 32.58,32.58 0 1 1 375,163.84 a 32.58,32.58 0 0 1 32.58,32.57 z"
             id="path51"
             style="fill:#3a4b71;fill-opacity:1" /></g><path
           class="cls-12"
           d="m 384,182 c 0,0 8.93,-9.44 13.77,-8.88 v 0 c -0.72,-0.7 -1.48,-1.37 -2.26,-2 v 0 a 14.81,14.81 0 0 0 -1.18,-0.91 c 0,0 -0.05,0 -0.06,-0.06 l -1.17,-0.83 v 0 c -0.38,-0.06 -0.77,-0.13 -1.18,-0.17 -5.25,-0.49 -16.87,4.51 -16.87,4.51 0,0 -11.62,-5 -16.87,-4.51 -0.41,0 -0.81,0.1 -1.19,0.17 v 0 l -1.18,0.84 -0.06,0.05 c -0.4,0.29 -0.8,0.59 -1.19,0.91 v 0 c -0.79,0.65 -1.55,1.32 -2.27,2 v 0 C 357.07,172.57 366,182 366,182 c 0,0 -17.74,20.89 -17,34.09 a 34.5,34.5 0 0 0 3.62,4 C 352.22,208.13 375,190 375,190 c 0,0 22.79,18.14 22.35,30.13 a 33.79,33.79 0 0 0 3.57,-4 v 0 C 401.74,202.89 384,182 384,182 Z"
           id="path52"
           style="fill:url(#radialGradient85);fill-opacity:1" /></g><g
         id="g57"><g
           id="g58"
           style="display:inline"><path
             class="cls-4"
             d="M 523.25279,0.18778405 C 512.47279,0.59778405 510,11.58 509.86,15.33 v 1.23 c 1.76379,31.004936 1.76379,62.085064 0,93.09 9.93,2.29 38.54,5.3 38.54,5.3 0,0 0,-20.91 0.68,-50.6 0.8,-37.5 -25.82721,-64.16221595 -25.82721,-64.16221595 z"
             id="path57"
             sodipodi:nodetypes="ccccccc"
             style="opacity:0.5;fill:#000000"
             sodipodi:insensitive="true" /></g><g
           id="g54"
           transform="matrix(-1,0,0,1,750.08,0)"><path
             class="cls-12"
             d="m 523.25188,0.1875 c 0,0 -13.48918,-0.18779 -13.39279,15.14221 l 0.59262,94.2554 35.06738,4.9846 53.28,7.24 C 588.23435,19.56715 563.23568,11.22935 552.64504,7.19247 544.87603,4.23112 523.25188,0.1875 523.25188,0.1875 Z"
             id="path76"
             sodipodi:nodetypes="cscccsc"
             style="fill:#1c243c;fill-opacity:1" /><path
             class="cls-12"
             d="m 226.82811,0.1875 c 0,0 13.48918,-0.18779 13.39279,15.14221 l -0.59262,94.2554 -35.06738,4.9846 -53.28,7.24 C 161.84564,19.56715 186.84431,11.22935 197.43495,7.19247 205.20396,4.23112 226.82811,0.1875 226.82811,0.1875 Z"
             id="path53-0"
             sodipodi:nodetypes="cscccsc"
             style="fill:#1c243c;fill-opacity:1" /><path
             id="path77"
             style="opacity:0.5;fill:#000000"
             class="cls-12"
             d="m 523.25188,0.1875 c 10e-4,0.001355 26.6281,26.663062 25.82812,64.162109 -0.68,29.69 -0.67969,50.599611 -0.67969,50.599611 0,0 -0.1356,-0.012 -0.37109,-0.0371 l -0.0117,-0.002 c -0.0181,-0.002 -0.1819,-0.0253 -0.20117,-0.0273 -0.32029,-0.0342 -2.71204,-0.39225 -3.3418,-0.46093 l -34.02148,-4.83594 -0.16211,-25.660159 c 0.21643,-22.383178 0.0244,-44.301844 -0.41992,-66.820312 l -0.008,-1.152344 c 0.0302,-2.292892 0.24745,-4.893659 1.04297,-7.3125 2.14135,-5.8267593 7.0623,-7.6330618 10.00391,-8.1953125 0.39446,-0.0613434 0.76072,-0.14517863 1.18359,-0.18359375 0.37495,-0.0340614 0.7602,-0.0590814 1.15821,-0.0742188 z" /><path
             id="path53"
             style="opacity:0.5;fill:#000000"
             class="cls-12"
             d="m 226.82811,0.1875 c -0.001,0.001355 -26.6281,26.663062 -25.82812,64.162109 0.68,29.69 0.67969,50.599611 0.67969,50.599611 0,0 0.1356,-0.012 0.37109,-0.0371 l 0.0117,-0.002 c 0.0181,-0.002 0.1819,-0.0253 0.20117,-0.0273 0.32029,-0.0342 2.71204,-0.39225 3.3418,-0.46093 l 34.02148,-4.83594 0.16211,-25.660159 c -0.21643,-22.383178 -0.0244,-44.301844 0.41992,-66.820312 l 0.008,-1.152344 c -0.0302,-2.292892 -0.24745,-4.893659 -1.04297,-7.3125 -2.14135,-5.8267593 -7.0623,-7.6330618 -10.00391,-8.1953125 -0.39446,-0.0613434 -0.76072,-0.14517863 -1.18359,-0.18359375 -0.37495,-0.0340614 -0.7602,-0.0590814 -1.15821,-0.0742188 z" /></g></g><path
         id="path84"
         style="opacity:0.5;fill:#0b143f;fill-opacity:0.586;stroke:none;stroke-width:5.76064;stroke-opacity:1"
         d="m 295.25781,225.93555 c 12.24364,12.24364 19.82227,11.44531 19.82227,11.44531 h 60.5 l 0.0508,0.01 v -0.01 h 60.5 c 0,0 7.57862,0.79833 19.82226,-11.44531 1.53886,-1.53885 -9.6915,9.77363 -18.27734,10.68945 -9.375,1 -62.07031,0.31055 -62.07031,0.31055 0,0 -52.69531,0.68945 -62.07031,-0.31055 -8.58584,-0.91582 -19.8162,-12.2283 -18.27735,-10.68945 z" /><g
         id="g74"
         inkscape:transform-center-x="187.6711"
         inkscape:transform-center-y="-90.935538"
         transform="matrix(1.4696341,-0.60343727,0.60343727,1.4696341,1088.4222,480.49743)"><path
           style="opacity:1;fill:#394a70;fill-opacity:1;stroke:none;stroke-width:0.566929;stroke-linecap:round"
           d="m -268.34702,-99.348502 c 0,0 -4.86916,-4.312788 -12.82723,-0.850648 -3.46052,1.505491 -6.96742,4.0609 -9.40742,7.912832 -5.32124,8.400443 -5.39711,20.752522 -0.12397,27.061584 4.11346,4.921557 8.39134,6.55734 16.34821,4.767104 l 5.55484,-0.377367 -0.26366,0.994506 7.61371,-0.260717 0.25827,-1.250659 5.80188,-0.343199 c 0,0 2.70711,1.370019 5.0494,1.149048 2.34229,-0.220971 3.28201,-1.073604 3.28201,-1.073604 l 5.27466,0.145526 -0.30936,12.153398 6.0104,-11.799844 6.71752,0.176776 0.11421,-2.222078 c 7.94027,1.060992 14.61206,-3.050583 16.06085,-12.671358 1.90377,-12.642072 -4.30494,-14.992072 -10.38563,-14.495689 l 1.98874,-9.545942 -11.31371,-0.176777 v -10.07627 l -8.66205,16.882173 -8.83884,-0.353553 1.06066,-6.010408 z"
           id="path74"
           sodipodi:nodetypes="csssccccccsccccccscccccccc" /><path
           d="m -267.4941,-65.99692 5.12652,-29.96365 h 6.62913 c -0.49772,2.747401 -3.07603,20.406281 -4.94975,29.96365 z"
           style="opacity:1;fill:#ffffff;fill-opacity:1;stroke:none;stroke-width:0.566929;stroke-linecap:round"
           id="path1"
           sodipodi:nodetypes="ccccc" /><path
           id="path1-1"
           style="opacity:1;fill:#ffffff;fill-opacity:1;stroke:none;stroke-width:0.566929;stroke-linecap:round"
           d="m -232.66211,-95.591797 -5.12695,29.964844 h 6.80664 c 0.39282,-2.003674 0.065,-0.564583 0.49414,-3.068359 0.0144,-0.08391 0.0271,-0.128411 0.043,-0.142579 l 0.002,-0.002 h 0.002 l 0.002,-0.002 h 0.002 0.002 l 0.002,-0.002 h 0.002 l 0.002,0.002 h 0.002 0.002 l 0.002,0.002 c 0.14242,0.08755 0.50301,1.856424 2.50977,2.025391 2.85744,0.240595 9.95109,1.44392 11.44336,-11.285156 1.30422,-11.124977 -7.72262,-11.112096 -10.72071,-10.326172 0,0 0.076,-0.645286 0.084,-0.691407 0.53263,-3.253987 0.93383,-5.699631 1.07422,-6.474609 z m 6.69727,12.550781 c 0,0 3.31406,-0.176616 2.34179,5.347657 -0.98155,5.577003 -3.49023,5.302734 -3.49023,5.302734 0,0 -3.06701,0.609675 -2.25391,-5.082031 0.79549,-5.568465 3.40235,-5.56836 3.40235,-5.56836 z" /><path
           style="opacity:1;fill:#394a70;fill-opacity:1;stroke:none;stroke-width:0.566929;stroke-linecap:round"
           d="m -315.5,-147.125 h 29 l -1.1875,7 c 7.85336,-1.13955 11.84093,0.0703 16.28125,3.28125 3.35837,-3.90609 10.50573,-5.40964 14.4375,-2.5625 l 1.625,-7.5 h 17.5791 l -1.14905,7.16427 h 49.05553 l -17.67767,36.50439 c -2.59094,5.3503 -11.13693,2.2981 -16.61701,1.59099 L -225.625,-102 l 0.75,-5.625 h -8.375 -23.125 -2.875 c -7.96968,1.2955 -11.42339,0.007 -15,-3.875 0,0 -3.06584,4.85946 -9.25302,4.81526 -6.18719,-0.0442 -8.44607,-4.40923 -8.44607,-4.40923 l -0.94952,3.8789 H -321.75 Z"
           id="path64"
           sodipodi:nodetypes="cccccccccscccccccscccc" /><path
           style="opacity:1;fill:#ffffff;fill-opacity:1;stroke:none;stroke-width:0.566929;stroke-linecap:round"
           d="m -316.78384,-113.22547 5.03814,-29.52171 h 6.89429 l -1.67938,11.04854 h 6.8059 l 2.20971,-11.04854 h 6.18719 l -4.94975,29.52171 h -6.54074 l 1.59099,-11.84404 h -6.62912 l -2.12132,11.84404 z"
           id="path65"
           sodipodi:nodetypes="ccccccccccccc" /><path
           id="path66"
           style="opacity:1;fill:#ffffff;fill-opacity:1;stroke:none;stroke-width:0.566929;stroke-linecap:round"
           d="m -282.3125,-135.5 c 0,0 -9.53164,-0.18676 -10.50391,11.12695 -0.97227,11.31371 8.58203,12.28125 8.58203,12.28125 l 0.0488,-0.0215 c 5.39169,0.0884 11.03764,-2.72 10.93555,-13.16992 -0.10409,-10.65565 -9.0625,-10.2168 -9.0625,-10.2168 z m 0,5.96875 c 1.40173,0.075 3.01973,1.15184 2.5625,5.78125 -0.54286,5.496 -3.46608,5.5802 -4.1875,5.5 -0.72422,-0.0905 -3.13624,-1.11091 -2.34597,-6.02589 0.81225,-5.05171 3.04345,-5.30496 3.97097,-5.25536 z"
           sodipodi:nodetypes="csccscsscss" /><path
           style="opacity:1;fill:#ffffff;fill-opacity:1;stroke:none;stroke-width:0.566929;stroke-linecap:round"
           d="m -261.6875,-121.875 c 0,0 -0.81009,3.18241 -2.59255,3.18241 -1.78245,0 -2.4626,-1.38297 -1.82237,-5.05569 0.7149,-4.10107 1.69161,-5.83745 3.78992,-5.50172 1.5625,0.25 1.625,2.875 1.625,2.875 l 6.0625,0.0625 c 0,0 1.70388,-5.60022 -3.875,-8 -4.74736,-2.0421 -8.84877,0.0726 -10.5,2.1875 -1.88454,2.41378 -3.19194,4.31694 -3.75444,9.69194 -0.5625,5.375 1.75444,11.49556 9.31694,10.37056 7.5625,-1.125 8,-9.0625 8,-9.0625 z"
           id="path68"
           sodipodi:nodetypes="csssccsssscc" /><path
           style="opacity:1;fill:#ffffff;fill-opacity:1;stroke:none;stroke-width:0.566929;stroke-linecap:round"
           d="m -255.6191,-112.87192 5.12652,-29.96365 h 6.62913 l -2.20971,12.19759 3.62392,-4.06586 h 8.92723 l -8.3969,8.39689 4.33103,13.43503 h -6.36396 l -3.0052,-9.28078 -1.85616,9.28078 z"
           id="path69"
           sodipodi:nodetypes="cccccccccccc" /><path
           id="path70"
           style="opacity:1;fill:#ffffff;fill-opacity:1;stroke:none;stroke-width:0.566929;stroke-linecap:round"
           d="m -226.63867,-135.07227 c -0.9923,0.0342 -1.87828,0.25816 -2.64063,0.45704 -2.03294,0.53033 -6.36465,2.82828 -7.16015,10.42968 -0.79549,7.6014 1.99744,12.22588 8.13281,12.10938 6.98268,-0.13259 9.10352,-7.60156 9.10352,-7.60156 l -5.87696,-0.97266 c 0,0 -0.48652,3.44684 -3.22656,2.82812 -2.74004,-0.61872 -1.85742,-3.35742 -1.85742,-3.35742 l 11.40234,-0.17773 c 0,0 1.39152,-8.07205 -2.12109,-11.31446 -2.15447,-1.98873 -4.10203,-2.45736 -5.75586,-2.40039 z m -0.40625,5.35938 c 0.0771,-0.003 0.15748,-3.7e-4 0.24023,0.004 1.327,0.0685 2.29788,1.05883 2.1211,3.44531 l -4.46289,0.0449 c 0,0 -0.28791,-3.40565 2.10156,-3.49414 z" /><path
           style="opacity:1;fill:#ffffff;fill-opacity:1;stroke:none;stroke-width:0.566929;stroke-linecap:round"
           d="m -217.87728,-135.23417 h 6.71752 l 1.14905,11.4021 5.12652,-11.22532 h 7.33623 l -13.52341,28.8146 c 0,0 -1.50261,2.12132 -4.50781,1.94454 -3.0052,-0.17678 -4.41942,-0.97227 -4.41942,-0.97227 l 0.35356,-6.18719 c 0,0 3.02082,2.08295 4.52343,-1.45258 0.43576,-1.05588 0.27658,-2.09886 0.27658,-2.09886 z"
           id="path71"
           sodipodi:nodetypes="ccccccsccccc" /><path
           style="opacity:1;fill:#ffffff;fill-opacity:1;stroke:none;stroke-width:0.566929;stroke-linecap:round"
           d="m -271.9375,-85.0625 6.25,-0.625 c 0,0 -0.3125,-10.5625 -9.1875,-10.5625 -8.875,0 -14.09911,7.668655 -14.1875,16.125 -0.10778,10.311937 5.4375,12.375 6.125,12.9375 0.6875,0.5625 6.3125,2 10.625,-1.5 4.3125,-3.5 5.0625,-8.625 5.0625,-8.625 l -5.8125,-1.25 c 0,0 -2.25,6.25 -5.4375,5.625 -3.1875,-0.625 -4.5,-3.125 -3.5625,-9.125 0.9375,-6 4.25,-7.6875 6.375,-7.75 2.125,-0.0625 3.875,1.25 3.75,4.75 z"
           id="path72"
           sodipodi:nodetypes="ccssssccsssc" /><path
           style="opacity:1;fill:#ffffff;fill-opacity:1;stroke:none;stroke-width:0.566929;stroke-linecap:round"
           d="m -254.13166,-88.034794 h 6.64429 l -2.20971,12.462757 c 0,0 -0.7955,3.623922 1.23744,3.005204 1.55459,-0.473135 3.0052,-1.767767 3.27036,-3.623922 0.26517,-1.856156 2.03294,-11.844039 2.03294,-11.844039 h 6.36396 l -3.8007,21.036427 -5.65686,-0.353554 0.0884,-1.502602 c 0,0 -2.12132,1.546796 -4.86136,1.635185 -2.74004,0.08839 -4.17653,-1.126314 -5.03814,-3.668116 -0.76029,-2.242904 1.06591,-11.474325 1.86685,-17.14734 z"
           id="path73"
           sodipodi:nodetypes="cccsscccccsscc" /></g></g></g></svg>
