<?xml version="1.0" encoding="UTF-8" standalone="no"?>
<svg
   id="Layer_1"
   data-name="Layer 1"
   width="88.940514"
   height="121.62232"
   viewBox="0 0 88.940514 121.62232"
   version="1.1"
   xml:space="preserve"
   xmlns="http://www.w3.org/2000/svg"
   xmlns:svg="http://www.w3.org/2000/svg"><defs
     id="defs1"><style
       id="style1">
      .cls-1 {
        fill: none;
      }

      .cls-2 {
        fill: #050505;
      }

      .cls-3 {
        fill: #0d0808;
      }

      .cls-4 {
        fill: #141414;
      }

      .cls-5 {
        fill: #120b0b;
      }

      .cls-6 {
        fill: #242424;
      }

      .cls-7 {
        fill: #292929;
      }

      .cls-8 {
        fill: #191919;
      }

      .cls-9 {
        fill: #1c1c1c;
      }

      .cls-10 {
        fill: #171717;
      }

      .cls-11 {
        fill: #0f0f0f;
      }

      .cls-12 {
        fill: #1a1a1a;
      }

      .cls-13 {
        fill: #1a1615;
      }

      .cls-14, .cls-18 {
        fill: #0a0a0a;
      }

      .cls-14 {
        stroke: #000;
      }

      .cls-14, .cls-16, .cls-17 {
        stroke-miterlimit: 10;
      }

      .cls-15 {
        fill: #6d6b6c;
      }

      .cls-16 {
        fill: #080808;
        stroke: #140c0c;
      }

      .cls-16, .cls-17 {
        stroke-width: 2px;
      }

      .cls-17 {
        stroke: #120b0b;
      }

      .cls-19 {
        fill: #0d0d0d;
      }

      .cls-20 {
        isolation: isolate;
        opacity: 0.75;
      }

      .cls-21 {
        fill: #fff;
      }
    </style></defs><g
     id="layer9"
     transform="translate(-156.76955,184.06097)"><g
       id="LT_Pressed"
       data-name="LT Pressed"
       transform="translate(159,-180.99802)"
       style="fill:#1c243c;fill-opacity:1"><g
         id="g77"
         transform="translate(159.80613,8.4852813)"
         style="fill:#1c243c;fill-opacity:1"><path
           class="cls-12"
           d="m 677.56937,-192.54614 c 0,0 -13.48918,-0.18779 -13.39279,15.14221 l 0.59262,94.255403 35.06738,4.9846 53.28,7.24 C 742.55184,-173.16649 717.55317,-181.50429 706.96253,-185.54117 c -7.76901,-2.96135 -29.39316,-7.00497 -29.39316,-7.00497 z"
           id="path76-6"
           style="fill:#1c243c;fill-opacity:1"
           transform="matrix(-1,0,0,1,591.08,180.99802)" /><path
           id="path77-0"
           style="opacity:0.5;fill:#000000;fill-opacity:1"
           class="cls-12"
           d="m 677.56937,-192.54614 c 10e-4,0.001 26.6281,26.66306 25.82812,64.16211 -0.68,29.690003 -0.67969,50.599613 -0.67969,50.599613 0,0 -0.1356,-0.012 -0.37109,-0.0371 l -0.0117,-0.002 c -0.0181,-0.002 -0.1819,-0.0253 -0.20117,-0.0273 -0.32029,-0.0342 -2.71204,-0.39225 -3.3418,-0.46093 l -34.02148,-4.83594 -0.16211,-25.660163 c 0.21643,-22.38318 0.0244,-44.30184 -0.41992,-66.82031 l -0.008,-1.15234 c 0.0302,-2.2929 0.24745,-4.89366 1.04297,-7.3125 2.14135,-5.82676 7.0623,-7.63307 10.00391,-8.19532 0.39446,-0.0613 0.76072,-0.14518 1.18359,-0.18359 0.37495,-0.0341 0.7602,-0.0591 1.15821,-0.0742 z"
           transform="matrix(-1,0,0,1,591.08,180.99802)" /></g></g></g></svg>
